<svg width="1825" height="306" viewBox="0 0 1825 306" fill="none" xmlns="http://www.w3.org/2000/svg">
<g clip-path="url(#clip0_403_191)">
<rect x="1.33757e-05" y="306" width="306" height="1825" rx="28" transform="rotate(-90 1.33757e-05 306)" fill="url(#paint0_linear_403_191)"/>
<g filter="url(#filter0_f_403_191)">
<path d="M1984.37 -595.711C2155.03 -552.569 2226.62 -419.46 2276 -270.918C2288.35 -233.78 2299.31 -195.659 2310.09 -157.727C2320.87 -119.788 2331.46 -82.0406 2343.07 -45.6173C2366.29 27.2396 2393.54 94.6982 2434.38 147.621C2475.29 200.643 2521.66 251.059 2566.81 300.58C2611.95 350.088 2655.88 398.706 2691.88 448.081C2763.87 546.849 2804.22 648.832 2758.88 767.311C2736.23 826.479 2705.7 865.216 2669.09 892.092C2632.49 918.957 2589.86 933.933 2543.1 945.666C2449.51 969.146 2339.41 979.668 2226.84 1046.13C2170.61 1079.33 2123.91 1127.4 2079.49 1179.15C2035.11 1230.87 1992.97 1286.32 1945.98 1334.04C1898.97 1381.79 1847.02 1421.92 1782.9 1443.05C1718.76 1464.18 1642.53 1466.28 1547 1438.11C1451.51 1409.95 1395.17 1371.76 1361.13 1326.41C1327.1 1281.08 1315.46 1228.7 1309.12 1172.4C1296.42 1059.72 1304.85 931.263 1198.75 809.836C1145.62 749.041 1086.4 697.653 1028.28 650.635C970.178 603.638 913.113 560.963 864.438 517.682C815.751 474.39 775.345 430.399 750.545 380.68C725.73 330.93 716.566 275.496 730.275 209.387C757.693 77.1715 844.805 7.33996 960.283 -38.7034C1018.01 -61.7201 1082.85 -78.8061 1150.91 -94.7746C1218.98 -110.748 1290.25 -125.599 1360.92 -144.159C1431.39 -162.666 1485.06 -205.215 1531.07 -257.422C1577.11 -309.655 1615.39 -371.458 1655.16 -428.489C1694.9 -485.472 1736.12 -537.668 1787.95 -570.418C1839.82 -603.198 1902.27 -616.463 1984.37 -595.711ZM2274.32 -270.393C2224.98 -418.78 2153.7 -551.049 1984 -593.947C1902.35 -614.586 1840.39 -601.385 1788.93 -568.863C1737.41 -536.311 1696.36 -484.368 1656.63 -427.398C1616.93 -370.475 1578.54 -308.509 1532.42 -256.179C1486.28 -203.825 1432.33 -161.019 1361.43 -142.398C1290.73 -123.83 1219.39 -108.961 1151.37 -93.0011C1083.33 -77.0361 1018.59 -59.9742 960.985 -37.0067C845.804 8.91822 759.273 78.4017 732.019 209.827C718.392 275.538 727.505 330.542 752.127 379.905C776.765 429.299 816.959 473.097 865.581 516.331C914.215 559.576 971.171 602.164 1029.35 649.226C1087.51 696.268 1146.83 747.736 1200.06 808.654C1306.66 930.653 1298.23 1059.94 1310.89 1172.26C1317.22 1228.47 1328.81 1280.42 1362.53 1325.34C1396.24 1370.26 1452.17 1408.27 1547.44 1436.36C1642.67 1464.45 1718.54 1462.32 1782.29 1441.31C1846.06 1420.3 1897.79 1380.38 1944.7 1332.73C1991.64 1285.05 2033.66 1229.75 2078.13 1177.93C2122.58 1126.14 2169.43 1077.89 2225.91 1044.55C2338.75 977.921 2449.31 967.309 2542.61 943.898C2589.3 932.185 2631.67 917.276 2668.01 890.603C2704.34 863.941 2734.68 825.486 2757.21 766.596C2802.23 648.957 2762.29 547.666 2690.46 449.131C2654.54 399.854 2610.68 351.311 2565.53 301.793C2520.39 252.288 2473.97 201.811 2433 148.714C2391.95 95.5172 2364.61 27.7951 2341.38 -45.1133C2329.76 -81.5724 2319.16 -119.355 2308.38 -157.282C2297.6 -195.216 2286.65 -233.299 2274.32 -270.393ZM1956.33 -467.783C2105.55 -430.064 2168.13 -313.68 2211.29 -183.852C2222.08 -151.392 2231.66 -118.074 2241.08 -84.9231C2250.5 -51.7652 2259.76 -18.7767 2269.9 13.0538C2290.19 76.7241 2314.01 135.662 2349.69 181.897C2385.44 228.232 2425.96 272.29 2465.42 315.57C2504.87 358.837 2543.27 401.331 2574.73 444.489C2637.66 530.822 2672.94 619.994 2633.3 723.593C2613.5 775.321 2586.81 809.193 2554.79 832.695C2522.79 856.186 2485.52 869.279 2444.65 879.534C2362.84 900.059 2266.64 909.249 2168.28 967.323C2119.15 996.328 2078.35 1038.33 2039.53 1083.56C2000.75 1128.75 1963.91 1177.22 1922.84 1218.93C1881.75 1260.67 1836.33 1295.75 1780.27 1314.22C1724.2 1332.7 1657.55 1334.53 1574.05 1309.9C1490.57 1285.29 1441.31 1251.9 1411.54 1212.25C1381.78 1172.6 1371.6 1126.8 1366.06 1077.59C1354.96 979.087 1362.32 866.874 1269.63 760.788C1223.21 707.664 1171.46 662.757 1120.66 621.668C1069.89 580.599 1020.01 543.298 977.468 505.47C934.913 467.631 899.586 429.172 877.902 385.7C856.202 342.196 848.19 293.722 860.176 235.92C884.149 120.32 960.318 59.2674 1061.26 19.02C1111.72 -1.09859 1168.39 -16.031 1227.87 -29.9869C1287.37 -43.948 1349.65 -56.9268 1411.41 -73.1475C1472.97 -89.3138 1519.86 -126.484 1560.06 -172.102C1600.29 -217.744 1633.74 -271.748 1668.51 -321.596C1703.24 -371.398 1739.27 -417.032 1784.58 -445.667C1829.94 -474.331 1884.55 -485.927 1956.33 -467.783ZM2209.6 -183.326C2166.49 -313 2104.22 -428.544 1955.96 -466.02C1884.63 -484.05 1830.52 -472.517 1785.56 -444.11C1740.56 -415.673 1704.69 -370.294 1669.97 -320.505C1635.28 -270.764 1601.72 -216.599 1561.41 -170.859C1521.08 -125.095 1473.91 -87.6675 1411.92 -71.3855C1350.13 -55.1581 1287.77 -42.1629 1228.33 -28.2156C1168.87 -14.2631 1112.3 0.646765 1061.96 20.7162C961.316 60.8452 885.728 121.55 861.92 236.36C850.016 293.763 857.977 341.806 879.484 384.923C901.006 428.071 936.119 466.337 978.609 504.118C1021.11 541.91 1070.88 579.124 1121.73 620.259C1172.56 661.373 1224.41 706.36 1270.94 759.607C1364.13 866.265 1356.77 979.303 1367.83 1077.45C1373.36 1126.56 1383.49 1171.94 1412.94 1211.18C1442.38 1250.4 1491.24 1283.61 1574.48 1308.16C1657.69 1332.7 1723.97 1330.84 1779.67 1312.49C1835.37 1294.13 1880.57 1259.26 1921.56 1217.62C1962.58 1175.95 1999.29 1127.63 2038.17 1082.33C2077.01 1037.07 2117.97 994.892 2167.34 965.741C2265.98 907.501 2362.63 898.223 2444.16 877.767C2484.95 867.532 2521.97 854.505 2553.72 831.206C2585.44 807.918 2611.95 774.328 2631.64 722.878C2670.96 620.121 2636.07 531.639 2573.31 445.538C2541.92 402.479 2503.59 360.06 2464.13 316.782C2424.69 273.518 2384.11 229.399 2348.3 182.99C2312.41 136.481 2288.52 77.2789 2268.21 13.5569C2258.06 -18.309 2248.79 -51.331 2239.37 -84.4772C2229.95 -117.63 2220.38 -150.91 2209.6 -183.326ZM1930.54 -350.119C2060.03 -317.387 2114.33 -216.386 2151.77 -103.769C2161.13 -75.6124 2169.44 -46.711 2177.61 -17.9574C2185.79 10.8028 2193.81 39.4127 2202.61 67.0183C2220.21 122.239 2240.86 173.343 2271.79 213.427C2302.8 253.61 2337.93 291.819 2372.16 329.359C2406.38 366.886 2439.69 403.748 2466.98 441.187C2521.58 516.083 2552.21 593.473 2517.8 683.385C2500.62 728.268 2477.46 757.666 2449.67 778.065C2421.89 798.452 2389.55 809.812 2354.09 818.708C2283.12 836.515 2199.71 844.481 2114.42 894.84C2071.82 919.988 2036.44 956.408 2002.77 995.633C1969.14 1034.82 1937.18 1076.87 1901.56 1113.05C1865.91 1149.26 1826.5 1179.7 1777.86 1195.73C1729.19 1211.76 1671.36 1213.35 1598.92 1191.99C1526.5 1170.63 1483.74 1141.67 1457.9 1107.24C1432.07 1072.82 1423.24 1033.07 1418.43 990.386C1408.8 904.926 1415.19 807.651 1334.82 715.675C1294.57 669.606 1249.69 630.663 1205.63 595.025C1161.6 559.409 1118.33 527.049 1081.43 494.237C1044.52 461.413 1013.86 428.043 995.043 390.316C976.209 352.557 969.256 310.486 979.658 260.325C1000.46 160.007 1066.56 107.03 1154.14 72.1137C1197.91 54.6606 1247.07 41.7072 1298.66 29.6023C1350.27 17.4923 1404.28 6.23743 1457.85 -7.83109C1511.21 -21.8452 1551.87 -54.0681 1586.73 -93.6251C1621.61 -133.207 1650.62 -180.036 1680.78 -223.279C1710.91 -266.476 1742.17 -306.073 1781.49 -330.922C1820.86 -355.801 1868.26 -365.863 1930.54 -350.119ZM2150.08 -103.243C2112.7 -215.705 2058.7 -315.867 1930.18 -348.355C1868.34 -363.986 1821.43 -353.987 1782.47 -329.366C1743.46 -304.714 1712.36 -265.371 1682.24 -222.188C1652.16 -179.052 1623.04 -132.061 1588.08 -92.3823C1553.09 -52.6789 1512.16 -20.1989 1458.36 -6.06914C1404.76 8.00622 1350.68 19.2773 1299.12 31.3737C1247.55 43.4751 1198.49 56.4066 1154.84 73.8104C1067.56 108.608 1002.04 161.236 981.402 260.764C971.083 310.527 977.983 352.169 996.624 389.54C1015.28 426.943 1045.72 460.121 1082.57 492.886C1119.43 525.662 1162.59 557.934 1206.71 593.616C1250.79 629.278 1295.77 668.302 1336.13 714.494C1417 807.041 1410.61 905.141 1420.2 990.245C1425 1032.84 1433.78 1072.17 1459.3 1106.17C1484.82 1140.16 1527.17 1168.96 1599.35 1190.24C1671.51 1211.52 1728.97 1209.91 1777.25 1194C1825.55 1178.09 1864.73 1147.85 1900.28 1111.74C1935.85 1075.61 1967.69 1033.7 2001.41 994.407C2035.11 955.148 2070.64 918.552 2113.48 893.258C2199.06 842.734 2282.91 834.678 2353.61 816.941C2388.98 808.065 2421.08 796.772 2448.59 776.576C2476.09 756.392 2499.07 727.276 2516.14 682.669C2550.22 593.598 2519.99 516.9 2465.56 442.236C2438.35 404.895 2405.11 368.108 2370.88 330.57C2336.67 293.046 2301.47 254.775 2270.41 214.517C2239.26 174.16 2218.53 122.794 2200.92 67.5209C2192.11 39.8799 2184.07 11.236 2175.9 -17.5124C2167.73 -46.2672 2159.43 -75.1305 2150.08 -103.243ZM1906.73 -241.467C2018 -213.34 2064.65 -126.542 2096.81 -29.819C2104.85 -5.63549 2111.99 19.186 2119 43.8787C2126.02 68.578 2132.91 93.1452 2140.47 116.85C2155.58 164.268 2173.31 208.136 2199.85 242.54C2226.48 277.043 2256.65 309.851 2286.05 342.091C2315.43 374.317 2344.04 405.979 2367.48 438.137C2414.38 502.473 2440.71 568.982 2411.14 646.255C2396.38 684.82 2376.48 710.085 2352.59 727.619C2328.72 745.14 2300.93 754.901 2270.47 762.542C2209.5 777.839 2137.9 784.674 2064.68 827.909C2028.12 849.495 1997.74 880.759 1968.83 914.442C1939.95 948.087 1912.5 984.207 1881.9 1015.28C1851.28 1046.39 1817.43 1072.54 1775.62 1086.32C1733.81 1100.1 1684.12 1101.46 1621.88 1083.1C1559.68 1064.76 1522.93 1039.87 1500.71 1010.28C1478.51 980.69 1470.92 946.526 1466.79 909.859C1458.52 836.443 1464 752.965 1395.02 674.019C1360.46 634.465 1321.93 601.026 1284.09 570.423C1246.29 539.841 1209.12 512.046 1177.43 483.864C1145.72 455.673 1119.38 427.002 1103.21 394.58C1087.02 362.126 1081.05 325.965 1089.98 282.861C1107.86 196.654 1164.67 151.134 1239.9 121.141C1277.5 106.149 1319.72 95.024 1364.03 84.6284C1408.35 74.2277 1454.73 64.563 1500.73 52.482C1546.53 40.4552 1581.42 12.8012 1611.35 -21.1591C1641.3 -55.1439 1666.21 -95.348 1692.11 -132.492C1717.98 -169.588 1744.84 -203.612 1778.63 -224.965C1812.47 -246.349 1853.21 -254.996 1906.73 -241.467ZM2095.12 -29.2937C2063.02 -125.862 2016.67 -211.819 1906.36 -239.702C1853.29 -253.117 1813.04 -244.535 1779.61 -223.409C1746.13 -202.253 1719.44 -168.484 1693.57 -131.4C1667.74 -94.3637 1642.73 -53.9979 1612.7 -19.916C1582.64 14.1904 1547.47 42.1006 1501.24 54.2431C1455.21 66.3311 1408.76 76.0135 1364.49 86.4006C1320.2 96.7927 1278.07 107.895 1240.6 122.838C1165.67 152.713 1109.44 197.884 1091.73 283.3C1082.87 326.007 1088.8 361.738 1104.79 393.804C1120.8 425.902 1146.93 454.38 1178.57 482.514C1210.22 510.659 1247.28 538.368 1285.17 569.015C1323.03 599.642 1361.66 633.161 1396.33 672.838C1465.81 752.355 1460.33 836.658 1468.56 909.718C1472.68 946.288 1480.22 980.035 1502.11 1009.21C1524 1038.37 1560.34 1063.08 1622.32 1081.36C1684.26 1099.63 1733.58 1098.24 1775.02 1084.59C1816.47 1070.93 1850.1 1044.97 1880.62 1013.97C1911.17 982.946 1938.5 946.971 1967.47 913.216C1996.41 879.499 2026.93 848.06 2063.74 826.328C2137.25 782.927 2209.29 776.003 2269.98 760.776C2300.36 753.154 2327.9 743.459 2351.51 726.129C2375.11 708.811 2394.83 683.827 2409.48 645.539C2438.73 569.107 2412.79 503.29 2366.07 439.187C2342.7 407.126 2314.15 375.539 2284.76 343.302C2255.38 311.079 2225.15 278.208 2198.47 243.63C2171.71 208.953 2153.9 164.823 2138.78 117.353C2131.21 93.6129 2124.31 69.0117 2117.29 44.3241C2110.28 19.6302 2103.15 -5.15469 2095.12 -29.2937ZM1888.59 -158.686C1985.97 -134.068 2026.8 -58.0937 2054.93 26.5206C2061.96 47.677 2068.21 69.3917 2074.35 90.9905C2080.49 112.596 2086.51 134.083 2093.12 154.815C2106.34 196.29 2121.84 234.644 2145.05 264.72C2168.33 294.896 2194.72 323.59 2220.43 351.791C2246.13 379.979 2271.17 407.678 2291.67 435.813C2332.71 492.103 2355.77 550.322 2329.88 617.967C2316.96 651.717 2299.54 673.835 2278.63 689.185C2257.73 704.523 2233.4 713.065 2206.76 719.75C2153.41 733.135 2090.81 739.107 2026.78 776.916C1994.81 795.788 1968.25 823.124 1942.97 852.584C1917.72 882.006 1893.69 913.61 1866.93 940.797C1840.14 968.008 1810.51 990.901 1773.92 1002.96C1737.32 1015.02 1693.83 1016.21 1639.38 1000.15C1584.95 984.096 1552.78 962.316 1533.33 936.402C1513.88 910.496 1507.25 880.586 1503.63 848.507C1496.39 784.267 1501.19 711.3 1440.89 642.282C1410.66 607.691 1376.96 578.446 1343.87 551.679C1310.81 524.933 1278.29 500.616 1250.56 475.963C1222.83 451.3 1199.77 426.209 1185.62 397.829C1171.45 369.417 1166.22 337.76 1174.04 300.031C1189.69 224.576 1239.41 184.738 1305.23 158.495C1338.13 145.378 1375.07 135.645 1413.83 126.552C1452.6 117.453 1493.17 109 1533.4 98.4329C1573.43 87.9202 1603.94 63.7472 1630.11 34.0512C1656.3 4.33053 1678.08 -30.8259 1700.74 -63.3225C1723.37 -95.772 1746.88 -125.549 1776.45 -144.239C1806.08 -162.96 1841.74 -170.527 1888.59 -158.686ZM2053.25 27.0459C2025.17 -57.4134 1984.64 -132.548 1888.22 -156.922C1841.83 -168.65 1806.65 -161.146 1777.43 -142.683C1748.17 -124.19 1724.83 -94.6677 1702.21 -62.2311C1679.62 -29.8418 1657.73 5.47683 1631.45 35.2945C1605.15 65.137 1574.38 89.5669 1533.91 100.195C1493.65 110.769 1453.01 119.239 1414.29 128.324C1375.55 137.413 1338.71 147.124 1305.94 160.192C1240.41 186.316 1191.27 225.805 1175.78 300.47C1168.04 337.801 1173.22 369.028 1187.2 397.053C1201.19 425.108 1224.03 450.005 1251.71 474.611C1279.39 499.227 1311.8 523.459 1344.94 550.271C1378.06 577.063 1411.86 606.386 1442.2 641.1C1503 710.69 1498.21 784.483 1505.4 848.366C1509.01 880.348 1515.6 909.841 1534.73 935.33C1553.85 960.811 1585.62 982.419 1639.81 998.401C1693.98 1014.37 1737.1 1013.16 1773.32 1001.22C1809.55 989.287 1838.96 966.597 1865.65 939.486C1892.36 912.35 1916.26 880.89 1941.61 851.358C1966.92 821.863 1993.63 794.351 2025.84 775.333C2090.16 737.359 2153.2 731.298 2206.27 717.982C2232.84 711.317 2256.92 702.842 2277.55 687.696C2298.17 672.561 2315.41 650.724 2328.22 617.251C2353.78 550.448 2331.12 492.921 2290.26 436.863C2269.82 408.826 2244.86 381.201 2219.15 353.003C2193.45 324.818 2167.01 296.061 2143.66 265.811C2120.24 235.462 2104.66 196.844 2091.43 155.318C2084.81 134.551 2078.77 113.029 2072.64 91.4356C2066.5 69.8354 2060.26 48.1578 2053.25 27.0459ZM1871.18 -79.2599C1955.25 -58.009 1990.48 7.58187 2014.75 80.5777C2020.82 98.8294 2026.21 117.562 2031.5 136.192C2036.8 154.829 2042 173.36 2047.7 191.241C2059.09 227.011 2072.46 260.077 2092.46 286.001C2112.54 312.024 2135.3 336.769 2157.48 361.096C2179.65 385.409 2201.25 409.307 2218.94 433.582C2254.35 482.152 2274.26 532.417 2251.91 590.823C2240.76 619.953 2225.72 639.051 2207.66 652.306C2189.62 665.549 2168.62 672.921 2145.63 678.689C2099.6 690.239 2045.63 695.384 1990.42 727.985C1962.86 744.253 1939.96 767.82 1918.15 793.229C1896.38 818.6 1875.65 845.87 1852.56 869.324C1829.45 892.802 1803.87 912.564 1772.29 922.97C1740.69 933.381 1703.16 934.405 1656.16 920.547C1609.2 906.698 1581.43 887.899 1564.63 865.516C1547.83 843.142 1542.11 817.315 1538.99 789.637C1532.74 734.202 1536.88 671.32 1484.89 611.827C1458.83 581.998 1429.77 556.78 1401.23 533.693C1372.71 510.628 1344.66 489.646 1320.74 468.379C1296.81 447.101 1276.91 425.446 1264.69 400.944C1252.45 376.41 1247.94 349.074 1254.69 316.503C1268.2 251.364 1311.14 216.977 1367.93 194.332C1396.31 183.015 1428.19 174.618 1461.61 166.774C1495.07 158.925 1530.05 151.635 1564.75 142.521C1599.25 133.461 1625.54 112.629 1648.11 87.0241C1670.7 61.3949 1689.47 31.0817 1709.03 3.04409C1728.55 -24.9465 1748.83 -50.6487 1774.37 -66.7839C1799.95 -82.9495 1830.74 -89.4814 1871.18 -79.2599ZM2013.07 81.1034C1988.85 8.26267 1953.92 -56.4883 1870.81 -77.4956C1830.83 -87.6034 1800.52 -81.135 1775.35 -65.2274C1750.12 -49.2893 1730 -23.8442 1710.49 4.13326C1691.01 32.0639 1672.13 62.5409 1649.45 88.2674C1626.76 114.018 1600.19 135.108 1565.26 144.284C1530.53 153.405 1495.47 160.712 1462.07 168.547C1428.66 176.388 1396.89 184.761 1368.63 196.029C1312.13 218.555 1269.78 252.593 1256.44 316.942C1249.77 349.115 1254.23 376.022 1266.27 400.168C1278.33 424.345 1298.02 445.807 1321.88 467.027C1345.76 488.257 1373.71 509.153 1402.3 532.285C1430.87 555.395 1460.03 580.694 1486.2 610.645C1538.69 670.711 1534.55 734.418 1540.76 789.497C1543.86 817.077 1549.55 842.488 1566.03 864.446C1582.5 886.395 1609.87 905.021 1656.6 918.802C1703.3 932.574 1740.47 931.523 1771.69 921.238C1802.91 910.948 1828.26 891.391 1851.28 868.013C1874.32 844.61 1894.93 817.485 1916.8 792.003C1938.63 766.56 1961.68 742.817 1989.48 726.403C2044.98 693.636 2099.39 688.402 2145.15 676.922C2168.06 671.174 2188.81 663.868 2206.59 650.816C2224.35 637.776 2239.21 618.96 2250.25 590.106C2272.28 532.542 2252.76 482.968 2217.53 434.632C2199.9 410.454 2178.38 386.631 2156.2 362.307C2134.03 337.997 2111.22 313.19 2091.08 287.092C2070.86 260.895 2057.42 227.566 2046 191.743C2040.29 173.828 2035.08 155.263 2029.79 136.639C2024.5 118.007 2019.12 99.3107 2013.07 81.1034ZM1844.76 41.2925C1908.61 57.4337 1935.36 107.264 1953.77 162.626C1958.37 176.469 1962.46 190.676 1966.47 204.8C1970.49 218.931 1974.43 232.977 1978.75 246.529C1987.39 273.643 1997.51 298.679 2012.65 318.301C2027.87 338.021 2045.12 356.776 2061.93 375.221C2078.74 393.653 2095.12 411.782 2108.55 430.198C2135.41 467.05 2150.56 505.241 2133.57 549.624C2125.11 571.743 2113.68 586.257 2099.95 596.332C2086.24 606.396 2070.29 611.993 2052.85 616.369C2017.92 625.134 1977.06 629.025 1935.23 653.722C1914.37 666.038 1897.02 683.884 1880.49 703.145C1864 722.367 1848.26 743.06 1830.75 760.848C1813.22 778.66 1793.8 793.666 1769.81 801.57C1745.81 809.478 1717.31 810.251 1681.65 799.734C1646.01 789.227 1624.91 774.953 1612.13 757.931C1599.36 740.918 1595.01 721.285 1592.64 700.29C1587.9 658.217 1591.04 610.643 1551.69 565.606C1531.94 543.006 1509.92 523.895 1488.28 506.394C1466.68 488.915 1445.39 472.997 1427.25 456.869C1409.1 440.73 1393.99 424.288 1384.71 405.672C1375.4 387.025 1371.98 366.248 1377.11 341.506C1387.37 292.025 1419.99 265.912 1463.08 248.729C1484.62 240.143 1508.8 233.774 1534.14 227.826C1559.51 221.874 1586.02 216.348 1612.33 209.439C1638.43 202.584 1658.34 186.821 1675.43 167.426C1692.54 148.007 1706.76 125.044 1721.6 103.774C1736.4 82.5511 1751.8 63.0335 1771.19 50.7765C1790.64 38.489 1814.05 33.5291 1844.76 41.2925ZM1952.08 163.151C1933.73 107.944 1907.28 58.9537 1844.39 43.0563C1814.13 35.4069 1791.21 40.3029 1772.17 52.3321C1753.09 64.392 1737.85 83.6536 1723.06 104.864C1708.3 126.027 1693.97 149.152 1676.77 168.668C1659.55 188.21 1639.38 204.23 1612.83 211.201C1586.5 218.117 1559.91 223.66 1534.6 229.599C1509.27 235.542 1485.19 241.888 1463.78 250.425C1420.99 267.489 1388.95 293.254 1378.85 341.945C1373.8 366.289 1377.18 386.636 1386.29 404.896C1395.41 423.187 1410.31 439.436 1428.4 455.517C1446.49 471.609 1467.67 487.44 1489.36 504.986C1511.02 522.51 1533.14 541.702 1553 564.424C1592.85 610.033 1589.71 658.434 1594.41 700.149C1596.77 721.047 1601.07 740.262 1613.53 756.859C1625.98 773.448 1646.68 787.549 1682.08 797.989C1717.45 808.42 1745.59 807.62 1769.21 799.837C1792.84 792.051 1812.03 777.248 1829.47 759.536C1846.93 741.798 1862.54 721.25 1879.13 701.917C1895.69 682.623 1913.19 664.601 1934.29 652.138C1976.4 627.276 2017.71 623.297 2052.37 614.602C2069.73 610.246 2085.43 604.715 2098.88 594.843C2112.31 584.982 2123.55 570.751 2131.91 548.908C2148.57 505.367 2133.82 467.865 2107.13 431.246C2093.78 412.928 2077.47 394.875 2060.65 376.433C2043.85 358.004 2026.54 339.188 2011.27 319.393C1995.91 299.498 1985.71 274.198 1977.05 247.032C1972.72 233.445 1968.77 219.365 1964.76 205.245C1960.75 191.119 1956.67 176.949 1952.08 163.151ZM1820.49 152.032C1865.78 163.479 1884.74 198.832 1897.76 237.996C1901.01 247.789 1903.9 257.839 1906.74 267.825C1909.58 277.817 1912.37 287.743 1915.42 297.319C1921.52 316.481 1928.67 334.145 1939.34 347.977C1950.09 361.908 1962.28 375.158 1974.17 388.202C1986.05 401.232 1997.64 414.061 2007.15 427.096C2026.16 453.184 2036.93 480.288 2024.88 511.79C2018.88 527.47 2010.77 537.771 2001.02 544.926C1991.29 552.07 1979.98 556.036 1967.64 559.132C1942.89 565.34 1914.07 568.078 1884.54 585.515C1869.83 594.201 1857.59 606.793 1845.9 620.405C1834.25 633.979 1823.11 648.631 1810.72 661.214C1798.31 673.822 1784.55 684.462 1767.54 690.067C1750.51 695.677 1730.31 696.219 1705.05 688.771C1679.83 681.332 1664.84 671.215 1655.76 659.117C1646.69 647.027 1643.61 633.086 1641.93 618.228C1638.57 588.43 1640.79 554.915 1613.04 523.158C1599.1 507.197 1583.54 493.697 1568.25 481.328C1552.98 468.979 1537.92 457.712 1525.09 446.303C1512.25 434.885 1501.53 423.232 1494.94 410.023C1488.34 396.782 1485.91 382.03 1489.55 364.479C1496.83 329.379 1519.97 310.866 1550.49 298.7C1565.73 292.622 1582.84 288.116 1600.76 283.91C1618.71 279.7 1637.44 275.797 1656.04 270.913C1674.43 266.083 1688.46 254.976 1700.52 241.285C1712.61 227.569 1722.65 211.358 1733.15 196.304C1743.61 181.297 1754.53 167.462 1768.29 158.767C1782.09 150.042 1798.71 146.526 1820.49 152.032ZM1896.07 238.521C1883.1 199.512 1864.45 164.999 1820.13 153.794C1798.8 148.403 1782.66 151.855 1769.26 160.322C1755.82 168.819 1745.07 182.4 1734.61 197.394C1724.19 212.341 1714.04 228.715 1701.87 242.527C1689.67 256.364 1675.37 267.73 1656.54 272.675C1637.92 277.566 1619.11 281.486 1601.22 285.683C1583.31 289.885 1566.31 294.369 1551.19 300.397C1520.97 312.444 1498.41 330.608 1491.29 364.917C1487.74 382.071 1490.11 396.394 1496.53 409.247C1502.95 422.132 1513.46 433.591 1526.23 444.952C1539.02 456.324 1553.98 467.505 1569.32 479.92C1584.65 492.313 1600.3 505.893 1614.35 521.976C1642.6 554.306 1640.38 588.646 1643.7 618.087C1645.37 632.848 1648.4 646.373 1657.16 658.046C1665.92 669.711 1680.49 679.655 1705.49 687.026C1730.45 694.388 1750.29 693.819 1766.94 688.335C1783.59 682.846 1797.13 672.41 1809.44 659.901C1821.78 647.369 1832.8 632.862 1844.54 619.178C1856.26 605.532 1868.64 592.765 1883.6 583.933C1913.42 566.331 1942.69 563.503 1967.15 557.366C1979.41 554.29 1990.48 550.388 1999.95 543.436C2009.4 536.496 2017.32 526.476 2023.21 511.074C2034.95 480.413 2024.58 454.001 2005.73 428.145C1996.3 415.208 1984.78 402.455 1972.89 389.414C1961.01 376.387 1948.77 363.075 1937.96 349.068C1927.07 334.962 1919.85 317.036 1913.73 297.822C1910.66 288.211 1907.87 278.251 1905.03 268.27C1902.19 258.283 1899.31 248.27 1896.07 238.521ZM1798.15 253.959C1826.35 261.086 1838.13 283.114 1846.19 307.367C1848.21 313.433 1850 319.657 1851.76 325.834C1853.51 332.016 1855.23 338.149 1857.12 344.065C1860.89 355.908 1865.3 366.783 1871.86 375.286C1878.5 383.889 1886.02 392.074 1893.38 400.145C1900.73 408.202 1907.91 416.15 1913.8 424.231C1925.6 440.411 1932.33 457.309 1924.82 476.954C1921.09 486.705 1916.03 493.131 1909.95 497.598C1903.88 502.053 1896.83 504.518 1889.19 506.437C1873.83 510.29 1856.09 511.966 1837.88 522.719C1828.82 528.064 1821.28 535.82 1814.06 544.233C1806.87 552.608 1799.96 561.698 1792.28 569.491C1784.59 577.308 1776.03 583.927 1765.44 587.416C1754.84 590.91 1742.27 591.241 1726.6 586.618C1710.95 582.004 1701.6 575.712 1695.92 568.147C1690.25 560.59 1688.34 551.888 1687.3 542.679C1685.22 524.18 1686.59 503.608 1669.52 484.074C1660.91 474.225 1651.31 465.89 1641.86 458.244C1632.43 450.619 1623.09 443.632 1615.15 436.569C1607.2 429.496 1600.53 422.252 1596.42 414.02C1592.3 405.756 1590.78 396.549 1593.05 385.617C1597.58 363.756 1612.01 352.239 1630.94 344.692C1640.39 340.924 1651 338.13 1662.09 335.529C1673.2 332.922 1684.77 330.512 1696.27 327.492C1707.56 324.527 1716.18 317.705 1723.62 309.265C1731.08 300.801 1737.27 290.804 1743.78 281.472C1750.25 272.188 1757.03 263.581 1765.6 258.166C1774.22 252.72 1784.6 250.532 1798.15 253.959ZM1844.51 307.894C1836.5 283.795 1825.02 262.607 1797.79 255.724C1784.68 252.411 1774.79 254.533 1766.58 259.721C1758.33 264.94 1751.71 273.291 1745.24 282.563C1738.81 291.787 1732.51 301.946 1724.97 310.508C1717.4 319.095 1708.5 326.172 1696.77 329.253C1685.25 332.28 1673.6 334.708 1662.55 337.302C1651.47 339.9 1640.97 342.669 1631.64 346.388C1613.01 353.817 1599.17 364.986 1594.8 386.057C1592.61 396.591 1594.07 405.368 1598 413.244C1601.95 421.151 1608.4 428.203 1616.29 435.219C1624.19 442.246 1633.42 449.144 1642.93 456.835C1652.42 464.506 1662.12 472.921 1670.83 482.892C1688.4 502.998 1687.03 524.397 1689.07 542.539C1690.1 551.65 1691.96 559.935 1697.32 567.076C1702.68 574.208 1711.61 580.327 1727.03 584.873C1742.42 589.41 1754.62 589.053 1764.84 585.685C1775.08 582.313 1783.41 575.896 1791 568.178C1798.62 560.436 1805.42 551.492 1812.7 543.006C1819.95 534.559 1827.64 526.629 1836.94 521.138C1855.43 510.219 1873.62 508.453 1888.7 504.67C1896.27 502.771 1903.07 500.37 1908.87 496.107C1914.67 491.856 1919.53 485.712 1923.15 476.239C1930.35 457.435 1924.01 441.229 1912.39 425.28C1906.57 417.297 1899.46 409.424 1892.1 401.356C1884.76 393.301 1877.17 385.055 1870.47 376.378C1863.7 367.601 1859.22 356.462 1855.43 344.568C1853.53 338.616 1851.8 332.45 1850.05 326.279C1848.29 320.102 1846.51 313.915 1844.51 307.894ZM1782 327.68C1797.83 331.683 1804.43 344.072 1808.91 357.542C1810.03 360.913 1811.02 364.369 1811.99 367.79C1812.97 371.218 1813.92 374.607 1814.96 377.877C1817.05 384.426 1819.47 390.392 1823.06 395.041C1826.72 399.79 1830.88 404.311 1834.96 408.786C1839.02 413.247 1843.02 417.666 1846.3 422.165C1852.87 431.18 1856.69 440.695 1852.46 451.765C1850.37 457.228 1847.52 460.851 1844.09 463.373C1840.67 465.884 1836.71 467.265 1832.46 468.333C1823.89 470.483 1814.16 471.392 1804.13 477.312C1799.17 480.24 1795.02 484.497 1791.03 489.15C1787.07 493.765 1783.21 498.833 1778.95 503.162C1774.67 507.515 1769.88 511.227 1763.93 513.186C1757.97 515.15 1750.93 515.326 1742.18 512.746C1733.46 510.175 1728.19 506.652 1724.97 502.365C1721.76 498.085 1720.69 493.17 1720.11 488.046C1718.95 477.719 1719.71 466.507 1710.36 455.813C1705.62 450.385 1700.32 445.786 1695.09 441.555C1689.89 437.346 1684.69 433.457 1680.28 429.536C1675.86 425.605 1672.12 421.548 1669.81 416.915C1667.48 412.251 1666.63 407.054 1667.91 400.91C1670.45 388.624 1678.58 382.165 1689.13 377.958C1694.39 375.859 1700.29 374.307 1706.44 372.865C1712.6 371.418 1719 370.086 1725.36 368.415C1731.52 366.798 1736.24 363.076 1740.33 358.433C1744.44 353.765 1747.85 348.264 1751.47 343.071C1755.06 337.925 1758.85 333.1 1763.67 330.056C1768.53 326.982 1774.39 325.756 1782 327.68ZM1807.22 358.068C1802.79 344.753 1796.5 333.203 1781.63 329.444C1774.47 327.634 1769.1 328.795 1764.65 331.611C1760.14 334.458 1756.51 339.028 1752.93 344.161C1749.39 349.248 1745.87 354.912 1741.67 359.677C1737.45 364.466 1732.46 368.444 1725.86 370.177C1719.48 371.855 1713 373.204 1706.9 374.637C1700.76 376.076 1694.97 377.605 1689.83 379.654C1679.58 383.743 1672.03 389.853 1669.65 401.349C1668.46 407.095 1669.26 411.862 1671.39 416.139C1673.54 420.447 1677.07 424.31 1681.43 428.184C1685.79 432.068 1690.88 435.872 1696.17 440.148C1701.43 444.402 1706.82 449.081 1711.67 454.632C1721.52 465.897 1720.76 477.936 1721.88 487.906C1722.45 492.932 1723.47 497.43 1726.37 501.293C1729.26 505.147 1734.12 508.497 1742.61 511.001C1751.07 513.495 1757.75 513.291 1763.33 511.453C1768.92 509.611 1773.48 506.102 1777.67 501.849C1781.88 497.572 1785.62 492.648 1789.67 487.923C1793.69 483.236 1797.99 478.804 1803.19 475.729C1813.5 469.644 1823.68 468.645 1831.97 466.565C1836.14 465.517 1839.85 464.204 1843.01 461.885C1846.16 459.578 1848.81 456.236 1850.79 451.049C1854.71 440.82 1851.29 431.998 1844.88 423.215C1841.68 418.814 1837.75 414.469 1833.67 409.998C1829.61 405.539 1825.39 400.956 1821.67 396.133C1817.87 391.209 1815.37 384.98 1813.27 378.38C1812.21 375.075 1811.25 371.652 1810.28 368.236C1809.31 364.813 1808.33 361.394 1807.22 358.068Z" fill="white" fill-opacity="0.2"/>
</g>
<g opacity="0.8">
<path d="M1725.61 369.295C1751.12 362.597 1752.27 321.093 1781.81 328.561C1812.52 336.323 1807.59 376.441 1822.36 395.587C1837.14 414.733 1859.77 430.107 1851.62 451.407C1843.47 472.707 1824 464.514 1803.66 476.52C1783.33 488.526 1776.81 522.023 1742.39 511.873C1707.98 501.724 1730.21 477.182 1711.02 455.222C1691.83 433.263 1663.84 424.912 1668.78 401.129C1673.71 377.346 1700.11 375.994 1725.61 369.295Z" stroke="white" stroke-opacity="0.02" stroke-width="1.8"/>
<path d="M1696.52 328.372C1742.56 316.281 1744.64 241.361 1797.97 254.841C1853.4 268.852 1844.5 341.271 1871.17 375.832C1897.84 410.393 1938.7 438.146 1923.99 476.596C1909.27 515.045 1874.11 500.256 1837.41 521.928C1800.7 543.601 1788.94 604.066 1726.81 585.745C1664.69 567.424 1704.81 523.122 1670.17 483.483C1635.54 443.843 1585.02 428.768 1593.92 385.837C1602.83 342.905 1650.48 340.464 1696.52 328.372Z" stroke="white" stroke-opacity="0.02" stroke-width="1.8"/>
<path d="M1656.29 271.793C1730.73 252.243 1734.09 131.118 1820.31 152.912C1909.92 175.564 1895.53 292.645 1938.65 348.522C1981.77 404.399 2047.83 449.268 2024.05 511.431C2000.26 573.595 1943.42 549.684 1884.07 584.722C1824.73 619.761 1805.71 717.518 1705.27 687.898C1604.82 658.277 1669.7 586.653 1613.7 522.566C1557.7 458.478 1476.03 434.107 1490.42 364.698C1504.81 295.288 1581.85 291.342 1656.29 271.793Z" stroke="white" stroke-opacity="0.02" stroke-width="1.8"/>
<path d="M1612.58 210.324C1717.87 182.673 1722.63 11.352 1844.58 42.1782C1971.32 74.2169 1950.97 239.818 2011.96 318.85C2072.95 397.883 2166.39 461.346 2132.74 549.27C2099.1 637.194 2018.7 603.375 1934.76 652.933C1850.83 702.492 1823.93 840.761 1681.86 798.865C1539.79 756.969 1631.55 655.664 1552.34 565.018C1473.14 474.373 1357.62 439.902 1377.98 341.729C1398.34 243.556 1507.3 237.975 1612.58 210.324Z" stroke="white" stroke-opacity="0.02" stroke-width="1.8"/>
<path d="M1565 143.403C1703.87 106.932 1710.15 -119.036 1871 -78.3772C2038.17 -36.119 2011.33 182.305 2091.77 286.547C2172.21 390.788 2295.46 474.495 2251.08 590.464C2206.7 706.434 2100.66 661.827 1989.95 727.194C1879.24 792.561 1843.77 974.933 1656.38 919.674C1469 864.415 1590.02 730.795 1485.55 611.236C1381.08 491.677 1228.71 446.211 1255.57 316.723C1282.42 187.235 1426.13 179.874 1565 143.403Z" stroke="white" stroke-opacity="0.02" stroke-width="1.8"/>
<path d="M1533.66 99.3174C1694.65 57.0354 1701.93 -204.937 1888.4 -157.8C2082.22 -108.809 2051.1 144.418 2144.36 265.269C2237.61 386.121 2380.5 483.164 2329.05 617.612C2277.6 752.06 2154.66 700.346 2026.31 776.128C1897.96 851.91 1856.84 1063.34 1639.59 999.277C1422.35 935.213 1562.66 780.303 1441.54 641.694C1320.43 503.084 1143.78 450.374 1174.91 300.254C1206.04 150.134 1372.66 141.599 1533.66 99.3174Z" stroke="white" stroke-opacity="0.02" stroke-width="1.8"/>
<path d="M1500.99 53.3618C1685.04 5.02333 1693.36 -294.474 1906.55 -240.585C2128.12 -184.576 2092.55 104.923 2199.16 243.084C2305.78 381.246 2469.13 492.191 2410.31 645.897C2351.49 799.603 2210.94 740.48 2064.21 827.117C1917.47 913.754 1870.46 1155.47 1622.1 1082.23C1373.74 1008.99 1534.14 831.891 1395.68 673.427C1257.21 514.964 1055.27 454.703 1090.86 283.08C1126.45 111.457 1316.93 101.7 1500.99 53.3618Z" stroke="white" stroke-opacity="0.02" stroke-width="1.8"/>
<path d="M1458.1 -6.95089C1672.43 -63.2386 1682.11 -411.988 1930.36 -349.237C2188.37 -284.017 2146.95 53.0892 2271.09 213.972C2395.24 374.854 2585.46 504.043 2516.97 683.026C2448.47 862.01 2284.81 793.165 2113.95 894.049C1943.08 994.934 1888.34 1276.4 1599.13 1191.12C1309.93 1105.83 1496.71 899.608 1335.48 715.085C1174.24 530.562 939.085 460.391 980.528 260.545C1021.97 60.6983 1243.78 49.3368 1458.1 -6.95089Z" stroke="white" stroke-opacity="0.02" stroke-width="1.8"/>
<path d="M1411.66 -72.2662C1658.77 -137.163 1669.93 -539.25 1956.14 -466.902C2253.62 -391.707 2205.86 -3.04362 2348.99 182.444C2492.13 367.932 2711.43 516.879 2632.47 723.236C2553.5 929.593 2364.81 850.219 2167.81 966.532C1970.81 1082.85 1907.7 1407.36 1574.26 1309.03C1240.82 1210.7 1456.17 972.941 1270.28 760.197C1084.39 547.453 813.266 466.551 861.047 236.14C908.828 5.72927 1164.56 -7.36984 1411.66 -72.2662Z" stroke="white" stroke-opacity="0.02" stroke-width="1.8"/>
<path d="M1361.17 -143.278C1643.91 -217.534 1656.69 -677.612 1984.18 -594.829C2324.55 -508.79 2269.91 -64.0724 2433.69 148.167C2597.46 360.406 2848.4 530.835 2758.04 766.953C2667.69 1003.07 2451.79 912.249 2226.37 1045.34C2000.96 1178.43 1928.75 1549.74 1547.22 1437.23C1165.7 1324.72 1412.1 1052.67 1199.4 809.245C986.7 565.818 676.474 473.248 731.146 209.607C785.818 -54.0343 1078.43 -69.0226 1361.17 -143.278Z" stroke="white" stroke-opacity="0.02" stroke-width="1.8"/>
</g>
</g>
<defs>
<filter id="filter0_f_403_191" x="716.902" y="-612.664" width="2068.12" height="2078.74" filterUnits="userSpaceOnUse" color-interpolation-filters="sRGB">
<feFlood flood-opacity="0" result="BackgroundImageFix"/>
<feBlend mode="normal" in="SourceGraphic" in2="BackgroundImageFix" result="shape"/>
<feGaussianBlur stdDeviation="3.5" result="effect1_foregroundBlur_403_191"/>
</filter>
<linearGradient id="paint0_linear_403_191" x1="306" y1="306" x2="-0.000143731" y2="2131" gradientUnits="userSpaceOnUse">
<stop stop-color="#164C35"/>
<stop offset="1" stop-color="#34B27B"/>
</linearGradient>
<clipPath id="clip0_403_191">
<rect x="1.33757e-05" y="306" width="306" height="1825" rx="28" transform="rotate(-90 1.33757e-05 306)" fill="white"/>
</clipPath>
</defs>
</svg>
